<svg width="16" height="16" viewBox="0 0 16 16" fill="none" xmlns="http://www.w3.org/2000/svg">
<path d="M11.9258 7.2644C12.8558 7.13374 13.5718 6.3364 13.5738 5.3704C13.5738 4.4184 12.8798 3.62907 11.9698 3.47974" stroke="url(#paint0_linear_6_12874)" stroke-width="1.5" stroke-linecap="round" stroke-linejoin="round"/>
<path d="M13.1523 9.50024C14.053 9.63491 14.6817 9.95024 14.6817 10.6002C14.6817 11.0476 14.3857 11.3382 13.907 11.5209" stroke="url(#paint1_linear_6_12874)" stroke-width="1.5" stroke-linecap="round" stroke-linejoin="round"/>
<path fill-rule="evenodd" clip-rule="evenodd" d="M7.92481 9.77588C5.78215 9.77588 3.95215 10.1005 3.95215 11.3972C3.95215 12.6932 5.77082 13.0272 7.92481 13.0272C10.0675 13.0272 11.8968 12.7059 11.8968 11.4085C11.8968 10.1112 10.0788 9.77588 7.92481 9.77588Z" stroke="url(#paint2_linear_6_12874)" stroke-width="1.5" stroke-linecap="round" stroke-linejoin="round"/>
<path fill-rule="evenodd" clip-rule="evenodd" d="M7.92492 7.92525C9.33092 7.92525 10.4709 6.78592 10.4709 5.37925C10.4709 3.97325 9.33092 2.83325 7.92492 2.83325C6.51892 2.83325 5.37893 3.97325 5.37893 5.37925C5.37359 6.78059 6.50493 7.92059 7.90626 7.92525H7.92492Z" stroke="url(#paint3_linear_6_12874)" stroke-width="1.5" stroke-linecap="round" stroke-linejoin="round"/>
<path d="M3.92339 7.2644C2.99272 7.13374 2.27739 6.3364 2.27539 5.3704C2.27539 4.4184 2.96939 3.62907 3.87939 3.47974" stroke="url(#paint4_linear_6_12874)" stroke-width="1.5" stroke-linecap="round" stroke-linejoin="round"/>
<path d="M2.69633 9.50024C1.79566 9.63491 1.16699 9.95024 1.16699 10.6002C1.16699 11.0476 1.46299 11.3382 1.94166 11.5209" stroke="url(#paint5_linear_6_12874)" stroke-width="1.5" stroke-linecap="round" stroke-linejoin="round"/>
<defs>
<linearGradient id="paint0_linear_6_12874" x1="12.1123" y1="4.19382" x2="14.0191" y2="4.85608" gradientUnits="userSpaceOnUse">
<stop stop-color="#0F123F"/>
<stop offset="1" stop-color="#3A408F"/>
</linearGradient>
<linearGradient id="paint1_linear_6_12874" x1="13.3255" y1="9.8815" x2="14.7788" y2="10.7588" gradientUnits="userSpaceOnUse">
<stop stop-color="#0F123F"/>
<stop offset="1" stop-color="#3A408F"/>
</linearGradient>
<linearGradient id="paint2_linear_6_12874" x1="4.85154" y1="10.3893" x2="6.99825" y2="14.5733" gradientUnits="userSpaceOnUse">
<stop stop-color="#0F123F"/>
<stop offset="1" stop-color="#3A408F"/>
</linearGradient>
<linearGradient id="paint3_linear_6_12874" x1="5.95536" y1="3.79401" x2="9.99053" y2="7.01255" gradientUnits="userSpaceOnUse">
<stop stop-color="#0F123F"/>
<stop offset="1" stop-color="#3A408F"/>
</linearGradient>
<linearGradient id="paint4_linear_6_12874" x1="2.46196" y1="4.19382" x2="4.36875" y2="4.85609" gradientUnits="userSpaceOnUse">
<stop stop-color="#0F123F"/>
<stop offset="1" stop-color="#3A408F"/>
</linearGradient>
<linearGradient id="paint5_linear_6_12874" x1="1.34012" y1="9.8815" x2="2.79345" y2="10.7588" gradientUnits="userSpaceOnUse">
<stop stop-color="#0F123F"/>
<stop offset="1" stop-color="#3A408F"/>
</linearGradient>
</defs>
</svg>
